HIERARCHY
ROOT Hips
{
	OFFSET 0.000000 0.000000 0.000000
	CHANNELS 6 Xposition Yposition Zposition Yrotation Xrotation Zrotation
	JOINT Chest
	{
		OFFSET 0.000000 -0.009281 11.569106
		CHANNELS 3 Yrotation Xrotation Zrotation
		JOINT Chest2
		{
			OFFSET -0.000000 0.016865 9.269641
			CHANNELS 3 Yrotation Xrotation Zrotation
			JOINT Chest3
			{
				OFFSET -0.000000 0.000001 8.374491
				CHANNELS 3 Yrotation Xrotation Zrotation
				JOINT Chest4
				{
					OFFSET -0.000000 0.000001 8.374493
					CHANNELS 3 Yrotation Xrotation Zrotation
					JOINT Neck
					{
						OFFSET -0.000000 0.000002 12.152554
						CHANNELS 3 Yrotation Xrotation Zrotation
						JOINT Head
						{
							OFFSET -0.000000 0.040101 7.802319
							CHANNELS 3 Yrotation Xrotation Zrotation
							End Site
							{
								OFFSET -0.000000 0.020947 14.853096
							}
						}
					}
					JOINT RightCollar
					{
						OFFSET 2.894404 0.000001 6.791374
						CHANNELS 3 Yrotation Xrotation Zrotation
						JOINT RightShoulder
						{
							OFFSET 13.574684 0.000001 0.000000
							CHANNELS 3 Yrotation Xrotation Zrotation
							JOINT RightElbow
							{
								OFFSET 23.923903 0.000002 0.000000
								CHANNELS 3 Yrotation Xrotation Zrotation
								JOINT RightWrist
								{
									OFFSET 19.846718 0.012767 0.000000
									CHANNELS 3 Yrotation Xrotation Zrotation
									End Site
									{
										OFFSET 14.973145 0.000001 0.000000
									}
								}
							}
						}
					}
					JOINT LeftCollar
					{
						OFFSET -2.894404 0.000001 6.791374
						CHANNELS 3 Yrotation Xrotation Zrotation
						JOINT LeftShoulder
						{
							OFFSET -13.574684 -0.000001 0.000000
							CHANNELS 3 Yrotation Xrotation Zrotation
							JOINT LeftElbow
							{
								OFFSET -23.923903 -0.000002 0.000000
								CHANNELS 3 Yrotation Xrotation Zrotation
								JOINT LeftWrist
								{
									OFFSET -19.846718 0.012763 0.000000
									CHANNELS 3 Yrotation Xrotation Zrotation
									End Site
									{
										OFFSET -14.973145 -0.000001 0.000000
									}
								}
							}
						}
					}
				}
			}
		}
	}
	JOINT RightHip
	{
		OFFSET 9.469263 0.004643 0.045487
		CHANNELS 3 Yrotation Xrotation Zrotation
		JOINT RightKnee
		{
			OFFSET 0.000000 0.002661 -40.478676
			CHANNELS 3 Yrotation Xrotation Zrotation
			JOINT RightAnkle
			{
				OFFSET 0.000000 0.049106 -35.224068
				CHANNELS 3 Yrotation Xrotation Zrotation
				JOINT RightToe
				{
					OFFSET -0.000001 12.539529 -6.151390
					CHANNELS 3 Yrotation Xrotation Zrotation
					End Site
					{
						OFFSET -0.000001 5.044994 -1.291870
					}
				}
			}
		}
	}
	JOINT LeftHip
	{
		OFFSET -9.469263 0.004641 0.045487
		CHANNELS 3 Yrotation Xrotation Zrotation
		JOINT LeftKnee
		{
			OFFSET 0.000000 0.002661 -40.478676
			CHANNELS 3 Yrotation Xrotation Zrotation
			JOINT LeftAnkle
			{
				OFFSET 0.000000 0.049106 -35.224068
				CHANNELS 3 Yrotation Xrotation Zrotation
				JOINT LeftToe
				{
					OFFSET -0.000001 12.539529 -6.151390
					CHANNELS 3 Yrotation Xrotation Zrotation
					End Site
					{
						OFFSET -0.000001 5.044994 -1.291870
					}
				}
			}
		}
	}
}
MOTION
Frames: 16
Frame Time: 0.016667
9.672247 6.955387 83.150116 -4.853758 -1.096361 -105.223258 -1.070275 -3.351712 2.268214 -0.458971 -1.493625 0.994192 -0.458971 -1.493624 0.994191 -0.341780 -1.120969 0.744479 -0.508692 -23.270910 5.435730 0.507975 -7.149066 9.649741 9.972246 3.385702 -6.728473 53.737726 39.247995 17.018087 41.692154 22.803526 44.372099 23.952404 22.851771 -12.172545 -9.873744 -2.910278 -7.112490 -57.645868 40.540557 -26.973266 -35.220741 28.638862 -50.722221 22.482387 58.383166 -21.401238 -0.903774 -5.209786 -1.965261 2.223703 -3.997757 -10.700392 -1.329838 3.886109 1.412900 -0.151230 -0.056276 0.015295 -0.947891 -6.560731 1.408384 0.729430 -1.321493 -0.921343 -0.555322 3.262384 0.291717 0.148110 0.026595 -0.014433 
9.663529 6.960005 83.150177 -4.763787 -1.041343 -104.945098 -1.083461 -3.353615 2.221599 -0.462830 -1.494701 0.970145 -0.462830 -1.494701 0.970146 -0.344730 -1.121765 0.726434 -0.446512 -23.245977 5.340148 0.596610 -7.102662 9.494708 9.900054 3.585784 -6.753042 53.200285 39.453000 16.793818 41.631632 23.054784 44.428789 23.991138 22.736716 -12.063338 -9.828830 -2.934025 -7.156170 -57.668462 40.121255 -27.232437 -34.484969 28.205575 -50.192082 21.535037 57.715201 -22.354608 -0.903366 -5.194717 -2.023714 2.225696 -3.873348 -10.868568 -1.306106 3.858402 1.370344 -0.136980 -0.054151 0.015968 -0.935664 -6.458432 1.422886 0.717179 -1.235768 -1.047369 -0.623754 3.167194 0.152581 0.170496 0.020166 -0.013211 
9.653773 6.972060 83.151245 -4.686662 -0.989891 -104.661366 -1.093214 -3.360983 2.173021 -0.465015 -1.498429 0.944814 -0.465015 -1.498429 0.944813 -0.346425 -1.124544 0.707430 -0.381527 -23.237649 5.215351 0.681577 -7.085761 9.287390 9.838788 3.771184 -6.768279 52.702935 39.578101 16.620972 41.503945 23.497037 44.517831 24.048516 22.552175 -11.955433 -9.764978 -2.931862 -7.158865 -57.696377 39.555623 -27.364545 -33.929665 27.729656 -49.701381 20.610125 57.104070 -23.196231 -0.910844 -5.174416 -2.084561 2.233003 -3.784406 -11.019735 -1.286033 3.841829 1.307336 -0.119931 -0.048604 0.016797 -0.928482 -6.362897 1.420278 0.705098 -1.162537 -1.169544 -0.685810 3.075040 0.023020 0.187093 0.014785 -0.013605 
9.646133 6.986833 83.152931 -4.627756 -0.946961 -104.373179 -1.097708 -3.372200 2.123195 -0.465247 -1.503345 0.919582 -0.465247 -1.503345 0.919583 -0.346654 -1.128213 0.688504 -0.308823 -23.244607 5.064111 0.772551 -7.096420 9.034086 9.775481 3.950928 -6.787174 52.282708 39.692330 16.474847 41.327361 24.032415 44.640778 24.106316 22.350916 -11.784571 -9.653353 -2.988557 -7.108408 -57.796665 38.831674 -27.476495 -33.539992 27.308063 -49.274118 19.667480 56.438451 -23.889876 -0.916585 -5.163675 -2.159477 2.239218 -3.721160 -11.173221 -1.267429 3.835564 1.248009 -0.100972 -0.040240 0.017522 -0.923346 -6.275399 1.389985 0.698577 -1.113623 -1.269591 -0.751540 2.992941 -0.107368 0.203079 0.010212 -0.012988 
9.639638 7.003466 83.154533 -4.591530 -0.909613 -104.080567 -1.096388 -3.382544 2.072475 -0.463443 -1.508050 0.894684 -0.463444 -1.508050 0.894681 -0.345355 -1.131719 0.669829 -0.229162 -23.268513 4.889424 0.868907 -7.137826 8.739961 9.722296 4.085457 -6.795984 51.967306 39.899670 16.371603 41.129613 24.639091 44.776719 24.212083 22.118664 -11.517834 -9.587447 -3.064985 -7.075935 -57.838800 37.993962 -27.502802 -33.219107 26.965674 -48.852102 18.712850 55.799886 -24.341449 -0.924956 -5.169903 -2.247101 2.245499 -3.674457 -11.335773 -1.247998 3.839146 1.206895 -0.082868 -0.033391 0.018292 -0.920425 -6.204151 1.342594 0.694130 -1.082146 -1.362156 -0.818048 2.919918 -0.232315 0.216591 0.005740 -0.011977 
9.634198 7.023120 83.155502 -4.572292 -0.876728 -103.792456 -1.086293 -3.388336 2.018063 -0.457811 -1.510907 0.868363 -0.457812 -1.510907 0.868364 -0.341192 -1.133834 0.650103 -0.149525 -23.309853 4.690118 0.957859 -7.210380 8.401062 9.696852 4.108993 -6.752472 51.826820 40.294564 16.394862 40.925428 25.345003 44.937123 24.386217 21.828277 -11.254212 -9.547792 -3.105542 -6.979941 -57.877022 37.032695 -27.427979 -32.962865 26.665523 -48.385654 17.326694 55.136463 -24.732537 -0.940672 -5.183550 -2.344830 2.260204 -3.649201 -11.507556 -1.233172 3.854070 1.199163 -0.064110 -0.027459 0.018410 -0.923924 -6.144544 1.284052 0.694819 -1.064464 -1.458073 -0.879443 2.854364 -0.340726 0.224511 0.001206 -0.011026 
9.629301 7.048556 83.155373 -4.564036 -0.850281 -103.519501 -1.064005 -3.387294 1.961627 -0.446756 -1.510873 0.840819 -0.446756 -1.510874 0.840823 -0.332969 -1.133773 0.629476 -0.072443 -23.366883 4.459066 1.033251 -7.310435 8.003993 9.664777 4.069322 -6.696703 51.903933 40.813386 16.561861 40.723517 26.156781 45.104879 24.650219 21.416897 -10.945777 -9.517323 -3.121551 -6.831413 -57.927142 36.011790 -27.247149 -32.731339 26.379726 -47.810269 15.292403 54.243375 -25.082331 -0.969779 -5.194705 -2.442250 2.299424 -3.651365 -11.662503 -1.232028 3.881019 1.178482 -0.044879 -0.021284 0.016324 -0.934067 -6.093399 1.218994 0.701518 -1.059273 -1.551697 -0.928296 2.800400 -0.430513 0.223400 -0.005643 -0.009511 
9.623183 7.075752 83.154846 -4.564253 -0.831543 -103.263048 -1.033042 -3.389143 1.913707 -0.433059 -1.512284 0.816657 -0.433059 -1.512283 0.816658 -0.322755 -1.134795 0.611387 0.006989 -23.430356 4.187780 1.102365 -7.420925 7.535048 9.650729 4.065382 -6.636677 52.118773 41.399952 16.787094 40.505989 27.048546 45.298989 24.936696 20.937127 -10.488909 -9.467677 -3.080396 -6.633898 -58.036971 34.986572 -26.924647 -32.542768 25.819264 -47.055256 13.106524 53.318335 -25.154967 -0.994970 -5.203545 -2.508873 2.334204 -3.670591 -11.812087 -1.232112 3.910373 1.148852 -0.024909 -0.014712 0.015786 -0.941724 -6.049281 1.146068 0.705563 -1.062960 -1.646770 -0.962109 2.754452 -0.493161 0.214371 -0.013543 -0.007609 
9.620075 7.101861 83.154411 -4.570905 -0.816674 -103.034162 -0.990914 -3.388608 1.865875 -0.411559 -1.510977 0.792519 -0.411559 -1.510977 0.792519 -0.306692 -1.133770 0.593337 0.072489 -23.504452 3.894044 1.140448 -7.549579 7.021952 9.638991 4.041382 -6.539966 52.480199 42.069696 17.080280 40.352771 28.058441 45.558181 25.210425 20.617657 -9.843247 -9.450716 -2.929557 -6.377614 -58.067830 34.035000 -26.296189 -32.485254 24.765667 -46.074148 10.868947 52.415674 -24.780032 -1.011985 -5.220747 -2.561258 2.355065 -3.693059 -11.939992 -1.230207 3.947671 1.102418 -0.006133 -0.013875 0.017070 -0.948923 -6.014744 1.071772 0.706700 -1.072488 -1.744266 -0.982285 2.737878 -0.532019 0.198540 -0.040578 -0.004983 
9.622163 7.124430 83.154533 -4.586720 -0.812580 -102.830472 -0.934490 -3.380109 1.812872 -0.387637 -1.506576 0.767853 -0.387637 -1.506576 0.767855 -0.288818 -1.130422 0.574902 0.129216 -23.590428 3.588003 1.159468 -7.699743 6.484338 9.618090 3.967329 -6.479816 53.099612 42.789462 17.555031 40.342338 29.196750 45.895702 25.377341 20.675990 -9.003158 -9.489747 -2.816015 -6.130397 -57.930174 33.281050 -25.415843 -32.627991 23.316466 -44.879250 7.913249 51.385590 -24.006592 -1.026416 -5.244962 -2.625504 2.382019 -3.719713 -12.040194 -1.234209 3.975107 1.069370 0.009877 -0.004901 0.017292 -0.950410 -5.996516 0.990591 0.709199 -1.090014 -1.831835 -0.992545 2.713694 -0.558344 0.177646 -0.045235 -0.003725 
9.629685 7.144919 83.155083 -4.607798 -0.815447 -102.668002 -0.876565 -3.350456 1.756750 -0.363208 -1.493114 0.742064 -0.363208 -1.493114 0.742064 -0.270578 -1.120280 0.555628 0.182852 -23.692681 3.274482 1.170846 -7.880233 5.932336 9.617410 3.857007 -6.425347 53.931703 43.567851 18.183555 40.454063 30.415652 46.254174 25.396486 21.280192 -7.862326 -9.548462 -2.927804 -5.855394 -57.682532 32.665031 -24.479854 -33.129307 21.820037 -43.683520 3.620989 50.306450 -22.523937 -1.033914 -5.266177 -2.686802 2.399281 -3.764589 -12.115793 -1.236309 4.007553 1.043491 0.024765 0.005235 0.017677 -0.953203 -5.990022 0.916984 0.715281 -1.116581 -1.890430 -0.996058 2.704031 -0.579604 0.154711 -0.048143 -0.003321 
9.639957 7.159535 83.154938 -4.634993 -0.825472 -102.553023 -0.822547 -3.302857 1.705285 -0.340954 -1.471869 0.718621 -0.340954 -1.471869 0.718620 -0.253971 -1.104305 0.538115 0.246684 -23.802840 2.934749 1.194211 -8.075569 5.335951 9.669028 3.648880 -6.342170 54.921619 44.477523 18.971445 40.717568 31.646087 46.601179 25.085989 22.436159 -6.427820 -9.482785 -3.362716 -5.403614 -57.536489 32.042613 -23.784148 -33.899899 20.675269 -42.560066 -1.502540 48.663575 -19.474886 -1.036712 -5.286046 -2.736229 2.412150 -3.821467 -12.175342 -1.239905 4.042618 1.045076 0.038234 0.014645 0.018514 -0.949069 -5.995323 0.837466 0.715991 -1.153122 -1.915332 -0.991910 2.710759 -0.589108 0.129761 -0.051006 -0.003151 
9.651920 7.171103 83.153511 -4.668872 -0.838243 -102.477563 -0.783538 -3.256408 1.670935 -0.324683 -1.451081 0.703762 -0.324683 -1.451081 0.703762 -0.241829 -1.088686 0.527023 0.336077 -23.908937 2.547387 1.252307 -8.263570 4.660894 9.754026 3.485387 -6.309141 55.899532 45.348986 19.707959 40.995536 32.694890 46.850863 24.204833 24.145455 -4.581039 -9.305881 -3.861751 -4.881854 -57.421161 31.338028 -23.167942 -34.666953 19.812497 -41.438044 -6.692820 46.317579 -15.160788 -1.042059 -5.299782 -2.776087 2.431565 -3.901754 -12.223374 -1.247733 4.092885 1.049330 0.048081 0.019547 0.017187 -0.942262 -6.011918 0.739686 0.707672 -1.195051 -1.931370 -0.980087 2.729585 -0.550111 0.107648 -0.054077 -0.002092 
9.663092 7.181837 83.150940 -4.714626 -0.856240 -102.444354 -0.755946 -3.224415 1.656313 -0.312745 -1.437015 0.697592 -0.312745 -1.437015 0.697592 -0.232906 -1.078121 0.522430 0.441837 -24.006086 2.117766 1.330205 -8.435026 3.914517 9.845333 3.407974 -6.272711 56.719537 46.103012 20.190275 41.259889 33.515195 47.088280 22.616928 26.363372 -2.376887 -9.151257 -4.427910 -4.541954 -57.186172 30.721904 -22.622471 -34.976958 18.860265 -40.043705 -11.721358 43.938890 -11.362447 -1.053410 -5.301185 -2.799052 2.454108 -4.022299 -12.254428 -1.252120 4.159753 1.069748 0.054835 0.022361 0.014591 -0.934393 -6.041937 0.639289 0.694942 -1.245838 -1.923582 -0.961062 2.761213 -0.500533 0.085763 -0.058283 -0.000244 
9.672065 7.193574 83.148064 -4.773395 -0.879853 -102.443863 -0.729910 -3.208843 1.653023 -0.301661 -1.430524 0.696095 -0.301661 -1.430524 0.696096 -0.224604 -1.073238 0.521340 0.550327 -24.088055 1.653762 1.405552 -8.578235 3.107606 9.903612 3.102274 -6.227916 57.636237 46.862877 20.821700 41.512131 34.110077 47.264854 20.187717 29.280669 -0.071905 -9.099662 -4.839998 -4.339589 -56.806817 29.991648 -21.900493 -34.782772 17.506437 -38.605452 -15.949415 41.682633 -9.086599 -1.064223 -5.299616 -2.812994 2.475935 -4.166782 -12.253717 -1.260576 4.232751 1.074704 0.061832 0.025594 0.012067 -0.930524 -6.076853 0.540766 0.683853 -1.320107 -1.862978 -0.934188 2.807334 -0.472424 0.062348 -0.061074 0.001429 
9.679582 7.207119 83.144890 -4.837744 -0.910664 -102.466812 -0.691522 -3.192224 1.636526 -0.285126 -1.423100 0.689374 -0.285126 -1.423100 0.689374 -0.212228 -1.067649 0.516340 0.641307 -24.160964 1.173599 1.446350 -8.704798 2.267636 9.946069 2.630938 -6.185106 58.460743 47.545760 21.543959 41.615250 34.472767 47.209991 16.963878 32.877081 2.121594 -9.100500 -5.200897 -4.173517 -56.520813 29.134459 -21.096569 -34.411149 16.092450 -37.641914 -19.357198 39.533155 -7.886400 -1.076479 -5.297862 -2.830579 2.503077 -4.317052 -12.221756 -1.275195 4.302876 1.071990 0.069489 0.029313 0.011096 -0.935066 -6.113711 0.454084 0.690241 -1.407859 -1.770644 -0.902738 2.863933 -0.450986 0.034428 -0.063946 0.001859 
